# Blender v2.77 (sub 0) OBJ File: ''
# www.blender.org
mtllib balltest1.mtl
o Cylinder
v 0.000000 -5.054150 -2.655870
v 0.000000 5.054150 -2.655870
v 0.518135 -5.054150 -2.604839
v 0.518135 5.054150 -2.604839
v 1.016358 -5.054150 -2.453704
v 1.016358 5.054150 -2.453704
v 1.475523 -5.054150 -2.208276
v 1.475523 5.054150 -2.208276
v 1.877984 -5.054150 -1.877984
v 1.877984 5.054150 -1.877984
v 2.208276 -5.054150 -1.475522
v 2.208276 5.054150 -1.475522
v 2.453704 -5.054150 -1.016358
v 2.453704 5.054150 -1.016358
v 2.604839 -5.054150 -0.518135
v 2.604839 5.054150 -0.518135
v 2.655870 -5.054150 -0.000000
v 2.655870 5.054150 -0.000000
v 2.604839 -5.054150 0.518134
v 2.604839 5.054150 0.518134
v 2.453704 -5.054150 1.016357
v 2.453704 5.054150 1.016357
v 2.208276 -5.054150 1.475522
v 2.208276 5.054150 1.475522
v 1.877984 -5.054150 1.877984
v 1.877984 5.054150 1.877984
v 1.475522 -5.054150 2.208276
v 1.475522 5.054150 2.208276
v 1.016357 -5.054150 2.453705
v 1.016357 5.054150 2.453705
v 0.518134 -5.054150 2.604839
v 0.518134 5.054150 2.604839
v -0.000001 -5.054150 2.655870
v -0.000001 5.054150 2.655870
v -0.518136 -5.054150 2.604838
v -0.518136 5.054150 2.604838
v -1.016359 -5.054150 2.453704
v -1.016359 5.054150 2.453704
v -1.475524 -5.054150 2.208275
v -1.475524 5.054150 2.208275
v -1.877985 -5.054150 1.877983
v -1.877985 5.054150 1.877983
v -2.208277 -5.054150 1.475521
v -2.208277 5.054150 1.475521
v -2.453705 -5.054150 1.016356
v -2.453705 5.054150 1.016356
v -2.604839 -5.054150 0.518132
v -2.604839 5.054150 0.518132
v -2.655870 -5.054150 -0.000003
v -2.655870 5.054150 -0.000003
v -2.604838 -5.054150 -0.518137
v -2.604838 5.054150 -0.518137
v -2.453703 -5.054150 -1.016360
v -2.453703 5.054150 -1.016360
v -2.208274 -5.054150 -1.475525
v -2.208274 5.054150 -1.475525
v -1.877982 -5.054150 -1.877986
v -1.877982 5.054150 -1.877986
v -1.475520 -5.054150 -2.208277
v -1.475520 5.054150 -2.208277
v -1.016354 -5.054150 -2.453706
v -1.016354 5.054150 -2.453706
v -0.518131 -5.054150 -2.604839
v -0.518131 5.054150 -2.604839
vt 0.6553 0.7824
vt 0.6145 0.4480
vt 0.6553 0.4480
vt 0.6145 0.7824
vt 0.5745 0.4480
vt 0.5745 0.7824
vt 0.5368 0.4480
vt 0.5368 0.7824
vt 0.5029 0.4480
vt 0.5029 0.7824
vt 0.4740 0.4480
vt 0.4696 0.7830
vt 0.4357 0.4486
vt 0.4696 0.4486
vt 0.4357 0.7830
vt 0.3980 0.4486
vt 0.3980 0.7830
vt 0.3580 0.4486
vt 0.3580 0.7830
vt 0.3172 0.4486
vt 0.3172 0.7830
vt 0.2771 0.4486
vt 0.2771 0.7830
vt 0.2395 0.4486
vt 0.2395 0.7830
vt 0.2055 0.4486
vt 0.5011 0.2048
vt 0.5350 0.5392
vt 0.5011 0.5392
vt 0.5350 0.2048
vt 0.5727 0.5392
vt 0.5727 0.2048
vt 0.6127 0.5392
vt 0.6127 0.2048
vt 0.6535 0.5392
vt 0.6535 0.2048
vt 0.6935 0.5392
vt 0.6935 0.2048
vt 0.7312 0.5392
vt 0.7312 0.2048
vt 0.7651 0.5392
vt 0.7651 0.2048
vt 0.7940 0.5392
vt 0.2082 0.2048
vt 0.2421 0.5392
vt 0.2082 0.5392
vt 0.2421 0.2048
vt 0.2798 0.5392
vt 0.2798 0.2048
vt 0.3198 0.5392
vt 0.3198 0.2048
vt 0.3606 0.5392
vt 0.3606 0.2048
vt 0.4006 0.5392
vt 0.4006 0.2048
vt 0.4383 0.5392
vt 0.4383 0.2048
vt 0.4723 0.5392
vt 0.4723 0.2048
vt 0.5011 0.5392
vt 0.7958 0.7824
vt 0.7669 0.4480
vt 0.7958 0.4480
vt 0.7669 0.7824
vt 0.7330 0.4480
vt 0.4890 0.6567
vt 0.7165 0.8068
vt 0.3023 0.8395
vt 0.7330 0.7824
vt 0.6953 0.4480
vt 0.6953 0.7824
vt 0.7030 0.1433
vt 0.5642 0.3518
vt 0.3047 0.2403
vt 0.4740 0.7824
vt 0.2055 0.7830
vt 0.7940 0.2048
vt 0.5011 0.2048
vt 0.5298 0.9895
vt 0.4890 0.9895
vt 0.4490 0.9831
vt 0.4113 0.9706
vt 0.3774 0.9524
vt 0.3486 0.9292
vt 0.3259 0.9020
vt 0.3103 0.8717
vt 0.3023 0.8068
vt 0.3103 0.7746
vt 0.3259 0.7443
vt 0.3486 0.7171
vt 0.3774 0.6939
vt 0.4113 0.6757
vt 0.4490 0.6631
vt 0.5298 0.6567
vt 0.5698 0.6631
vt 0.6075 0.6757
vt 0.6414 0.6939
vt 0.6703 0.7171
vt 0.6930 0.7443
vt 0.7086 0.7746
vt 0.7165 0.8395
vt 0.6703 0.9292
vt 0.7086 0.8717
vt 0.6930 0.9020
vt 0.6414 0.9524
vt 0.6075 0.9706
vt 0.5698 0.9831
vt 0.2967 0.2082
vt 0.2967 0.1754
vt 0.3047 0.1433
vt 0.3203 0.1130
vt 0.3429 0.0857
vt 0.4434 0.0318
vt 0.3718 0.0626
vt 0.4057 0.0443
vt 0.4834 0.0254
vt 0.5242 0.0254
vt 0.5642 0.0318
vt 0.6019 0.0443
vt 0.6358 0.0626
vt 0.6647 0.0857
vt 0.6873 0.1130
vt 0.7109 0.1754
vt 0.7109 0.2082
vt 0.7030 0.2403
vt 0.6873 0.2706
vt 0.6647 0.2979
vt 0.6358 0.3211
vt 0.6019 0.3393
vt 0.5242 0.3582
vt 0.4834 0.3582
vt 0.4434 0.3518
vt 0.4057 0.3393
vt 0.3718 0.3211
vt 0.3429 0.2979
vt 0.3203 0.2706
vn 0.0980 0.0000 -0.9952
vn 0.2903 0.0000 -0.9569
vn 0.4714 0.0000 -0.8819
vn 0.6344 0.0000 -0.7730
vn 0.7730 0.0000 -0.6344
vn 0.8819 0.0000 -0.4714
vn 0.9569 0.0000 -0.2903
vn 0.9952 0.0000 -0.0980
vn 0.9952 0.0000 0.0980
vn 0.9569 0.0000 0.2903
vn 0.8819 0.0000 0.4714
vn 0.7730 0.0000 0.6344
vn 0.6344 0.0000 0.7730
vn 0.4714 0.0000 0.8819
vn 0.2903 0.0000 0.9569
vn 0.0980 0.0000 0.9952
vn -0.0980 0.0000 0.9952
vn -0.2903 0.0000 0.9569
vn -0.4714 0.0000 0.8819
vn -0.6344 0.0000 0.7730
vn -0.7730 0.0000 0.6344
vn -0.8819 0.0000 0.4714
vn -0.9569 0.0000 0.2903
vn -0.9952 0.0000 0.0980
vn -0.9952 0.0000 -0.0980
vn -0.9569 0.0000 -0.2903
vn -0.8819 0.0000 -0.4714
vn -0.7730 0.0000 -0.6344
vn -0.6344 0.0000 -0.7730
vn -0.4714 0.0000 -0.8819
vn 0.0000 1.0000 0.0000
vn -0.2903 0.0000 -0.9569
vn -0.0980 0.0000 -0.9952
vn 0.0000 -1.0000 0.0000
usemtl None
s off
f 2/1/1 3/2/1 1/3/1
f 4/4/2 5/5/2 3/2/2
f 6/6/3 7/7/3 5/5/3
f 8/8/4 9/9/4 7/7/4
f 10/10/5 11/11/5 9/9/5
f 12/12/6 13/13/6 11/14/6
f 14/15/7 15/16/7 13/13/7
f 16/17/8 17/18/8 15/16/8
f 18/19/9 19/20/9 17/18/9
f 20/21/10 21/22/10 19/20/10
f 22/23/11 23/24/11 21/22/11
f 24/25/12 25/26/12 23/24/12
f 26/27/13 27/28/13 25/29/13
f 28/30/14 29/31/14 27/28/14
f 30/32/15 31/33/15 29/31/15
f 32/34/16 33/35/16 31/33/16
f 34/36/17 35/37/17 33/35/17
f 36/38/18 37/39/18 35/37/18
f 38/40/19 39/41/19 37/39/19
f 40/42/20 41/43/20 39/41/20
f 42/44/21 43/45/21 41/46/21
f 44/47/22 45/48/22 43/45/22
f 46/49/23 47/50/23 45/48/23
f 48/51/24 49/52/24 47/50/24
f 50/53/25 51/54/25 49/52/25
f 52/55/26 53/56/26 51/54/26
f 54/57/27 55/58/27 53/56/27
f 56/59/28 57/60/28 55/58/28
f 58/61/29 59/62/29 57/63/29
f 60/64/30 61/65/30 59/62/30
f 38/66/31 22/67/31 54/68/31
f 62/69/32 63/70/32 61/65/32
f 64/71/33 1/3/33 63/70/33
f 31/72/34 47/73/34 63/74/34
f 2/1/1 4/4/1 3/2/1
f 4/4/2 6/6/2 5/5/2
f 6/6/3 8/8/3 7/7/3
f 8/8/4 10/10/4 9/9/4
f 10/10/5 12/75/5 11/11/5
f 12/12/6 14/15/6 13/13/6
f 14/15/7 16/17/7 15/16/7
f 16/17/8 18/19/8 17/18/8
f 18/19/9 20/21/9 19/20/9
f 20/21/10 22/23/10 21/22/10
f 22/23/11 24/25/11 23/24/11
f 24/25/12 26/76/12 25/26/12
f 26/27/13 28/30/13 27/28/13
f 28/30/14 30/32/14 29/31/14
f 30/32/15 32/34/15 31/33/15
f 32/34/16 34/36/16 33/35/16
f 34/36/17 36/38/17 35/37/17
f 36/38/18 38/40/18 37/39/18
f 38/40/19 40/42/19 39/41/19
f 40/42/20 42/77/20 41/43/20
f 42/44/21 44/47/21 43/45/21
f 44/47/22 46/49/22 45/48/22
f 46/49/23 48/51/23 47/50/23
f 48/51/24 50/53/24 49/52/24
f 50/53/25 52/55/25 51/54/25
f 52/55/26 54/57/26 53/56/26
f 54/57/27 56/59/27 55/58/27
f 56/59/28 58/78/28 57/60/28
f 58/61/29 60/64/29 59/62/29
f 60/64/30 62/69/30 61/65/30
f 6/79/31 4/80/31 2/81/31
f 2/81/31 64/82/31 6/79/31
f 62/83/31 60/84/31 54/68/31
f 58/85/31 56/86/31 54/68/31
f 54/68/31 52/87/31 50/88/31
f 50/88/31 48/89/31 54/68/31
f 46/90/31 44/91/31 42/92/31
f 42/92/31 40/93/31 38/66/31
f 38/66/31 36/94/31 34/95/31
f 34/95/31 32/96/31 30/97/31
f 30/97/31 28/98/31 26/99/31
f 26/99/31 24/100/31 22/67/31
f 22/67/31 20/101/31 14/102/31
f 18/103/31 16/104/31 14/102/31
f 14/102/31 12/105/31 10/106/31
f 10/106/31 8/107/31 6/79/31
f 6/79/31 64/82/31 62/83/31
f 60/84/31 58/85/31 54/68/31
f 54/68/31 48/89/31 46/90/31
f 46/90/31 42/92/31 54/68/31
f 38/66/31 34/95/31 22/67/31
f 30/97/31 26/99/31 22/67/31
f 20/101/31 18/103/31 14/102/31
f 14/102/31 10/106/31 54/68/31
f 6/79/31 62/83/31 54/68/31
f 54/68/31 42/92/31 38/66/31
f 34/95/31 30/97/31 22/67/31
f 22/67/31 14/102/31 54/68/31
f 6/79/31 54/68/31 10/106/31
f 62/69/32 64/71/32 63/70/32
f 64/71/33 2/1/33 1/3/33
f 63/74/34 1/108/34 3/109/34
f 3/109/34 5/110/34 7/111/34
f 7/111/34 9/112/34 15/113/34
f 11/114/34 13/115/34 15/113/34
f 15/113/34 17/116/34 19/117/34
f 19/117/34 21/118/34 15/113/34
f 23/119/34 25/120/34 27/121/34
f 27/121/34 29/122/34 31/72/34
f 31/72/34 33/123/34 35/124/34
f 35/124/34 37/125/34 39/126/34
f 39/126/34 41/127/34 43/128/34
f 43/128/34 45/129/34 47/73/34
f 47/73/34 49/130/34 51/131/34
f 51/131/34 53/132/34 47/73/34
f 55/133/34 57/134/34 59/135/34
f 59/135/34 61/136/34 63/74/34
f 63/74/34 3/109/34 7/111/34
f 9/112/34 11/114/34 15/113/34
f 15/113/34 21/118/34 23/119/34
f 23/119/34 27/121/34 15/113/34
f 31/72/34 35/124/34 39/126/34
f 39/126/34 43/128/34 31/72/34
f 47/73/34 53/132/34 55/133/34
f 55/133/34 59/135/34 47/73/34
f 63/74/34 7/111/34 15/113/34
f 15/113/34 27/121/34 31/72/34
f 31/72/34 43/128/34 47/73/34
f 47/73/34 59/135/34 63/74/34
f 63/74/34 15/113/34 31/72/34
