# Blender v2.90.1 OBJ File: 'y-bot-origin-high.blend'
# www.blender.org
mtllib leftupleg.mtl
o Sphere
v -0.008162 -0.015434 0.045355
v -0.014438 0.016605 0.039694
v -0.003079 -0.040413 0.020046
v -0.043824 0.006639 0.009460
v -0.037484 -0.022447 -0.006444
v -0.031715 0.019026 -0.023165
v -0.010435 0.043717 0.001748
v -0.015748 -0.010343 -0.041002
v 0.005289 0.021123 -0.039761
v -0.000356 -0.041724 -0.015509
v 0.024974 -0.024398 -0.028402
v 0.036390 0.023233 -0.018817
v 0.041528 -0.015211 0.014578
v 0.022263 0.030192 0.024650
vt 0.690259 0.381378
vt 0.530784 0.450254
vt 0.722276 0.609222
vt 0.720900 0.835418
vt 0.473272 0.663288
vt 0.768340 0.111538
vt 0.399088 0.361369
vt 0.308653 0.568614
vt 0.229729 0.340371
vt 0.132544 0.672405
vt 0.998133 0.252781
vt 0.874999 0.278386
vt 0.942703 0.606462
vt 0.250492 0.863084
vt 0.589862 0.125488
vt 0.235909 0.074785
vt 0.072200 0.339657
vt 0.000000 0.608727
vt 0.985236 0.918502
vn -0.7143 -0.0163 0.6996
vn -0.6616 -0.5958 0.4552
vn -0.7453 0.6663 -0.0237
vn -0.9360 -0.0117 -0.3518
vn -0.8236 -0.1098 -0.5565
vn -0.4041 0.3042 -0.8626
vn 0.2517 -0.1304 -0.9590
vn 0.9112 0.3328 0.2429
vn 0.2982 0.2224 0.9282
vn -0.6371 0.6574 0.4025
vn -0.7585 -0.4321 0.4879
vn -0.4613 -0.8872 -0.0026
vn -0.4873 -0.6820 -0.5454
vn -0.2868 0.7916 -0.5395
vn 0.0273 -0.6222 -0.7824
vn 0.2118 0.8898 -0.4041
vn 0.5567 0.0336 -0.8300
vn 0.5522 -0.8330 -0.0346
vn 0.9323 -0.1580 -0.3253
vn 0.3936 0.9191 -0.0192
vn 0.4972 -0.8648 0.0700
vn 0.5261 0.0348 0.8497
vn 0.4228 -0.6011 0.6782
vn -0.0659 0.8152 0.5755
usemtl Material
s off
f 2/1/1 4/2/1 1/3/1
f 3/4/2 1/3/2 5/5/2
f 4/2/3 7/6/3 6/7/3
f 5/5/4 4/2/4 6/7/4
f 5/5/5 6/7/5 8/8/5
f 8/8/6 6/7/6 9/9/6
f 11/10/7 8/8/7 9/9/7
f 12/11/8 14/12/8 13/13/8
f 1/3/9 14/12/9 2/1/9
f 7/6/10 4/2/10 2/1/10
f 1/3/11 4/2/11 5/5/11
f 3/4/12 5/5/12 10/14/12
f 5/5/13 8/8/13 10/14/13
f 7/15/14 9/9/14 6/7/14
f 10/14/15 8/8/15 11/10/15
f 7/16/16 12/17/16 9/9/16
f 9/9/17 12/17/17 11/10/17
f 11/10/18 13/18/18 10/14/18
f 12/17/19 13/18/19 11/10/19
f 12/11/20 7/6/20 14/12/20
f 10/19/21 13/13/21 3/4/21
f 13/13/22 14/12/22 1/3/22
f 13/13/23 1/3/23 3/4/23
f 14/12/24 7/6/24 2/1/24
