# Blender 4.1.1
# www.blender.org
mtllib meDestruct_cell_001.mtl
o meDestruct_cell.001
v -0.665543 -0.001173 0.666599
v -0.000879 -0.001143 0.002255
v -0.665922 -0.666317 0.667220
v 0.332493 -0.333888 0.668039
v -0.332973 -0.666207 0.334357
v 0.316524 -0.317550 1.000000
v -0.000621 -0.001446 1.000000
v -0.665751 -0.001377 1.000000
v 0.332333 -0.333364 1.000000
v 0.332358 -0.665984 1.000000
v -0.665801 -0.088875 1.000000
v -0.665098 -0.999912 1.000000
v -0.001483 -1.000000 1.000000
v -0.044095 -1.000000 0.957350
v -0.333559 -1.000000 0.668887
v -0.665098 -0.999912 1.000000
v -0.333559 -1.000000 0.668887
v -0.000621 -0.001446 1.000000
v -0.665751 -0.001377 1.000000
v 0.332333 -0.333364 1.000000
v 0.332358 -0.665984 1.000000
v -0.001483 -1.000000 1.000000
v -0.044095 -1.000000 0.957350
v 0.316524 -0.317550 1.000000
v -0.665801 -0.088875 1.000000
vn 0.7059 0.7083 -0.0000
vn -0.7070 -0.0003 -0.7072
vn 0.7072 0.7070 -0.0008
vn 1.0000 0.0001 0.0005
vn 0.5777 -0.5773 -0.5771
vn -1.0000 0.0006 -0.0006
vn -1.0000 -0.0008 0.0017
vn -0.0001 -1.0000 0.0001
vn -0.0000 -0.0000 1.0000
vn 0.5753 -0.5795 -0.5773
vn -0.5770 -0.5776 -0.5775
vn 0.0001 1.0000 0.0006
vn -0.7069 -0.0002 -0.7073
vn 0.5777 -0.5768 -0.5775
vn 0.5776 -0.5772 -0.5772
vn -0.0000 0.0008 1.0000
vn -0.5770 -0.5776 -0.5774
vn 0.0003 1.0000 0.0003
vt 1.000000 0.000000
vt 1.000000 0.951826
vt 0.047376 0.000000
vt 0.000000 0.000000
vt 1.000000 0.952625
vt 1.000000 0.869963
vt 0.130447 0.000000
vt 0.090418 0.044710
vt 1.000000 1.000000
vt 0.868452 0.000000
vt 1.000000 0.131335
vt 0.869134 0.000000
vt 0.868452 0.868452
vt 0.166874 0.750000
vt 0.244488 0.744669
vt 0.249815 0.750000
vt 0.488891 0.958225
vt 0.375000 0.875185
vt 0.458329 0.833458
vt 1.000000 0.129186
vt 0.129180 0.129180
vt 0.129186 0.129186
vt 0.869134 0.869134
vt 0.951826 0.951826
vt 0.868665 0.000000
vt 0.869963 0.869963
vt 0.129180 0.000000
vt 1.000000 0.869553
vt 0.208305 0.708611
vt 0.460306 0.835434
vt 0.499819 0.875078
vt 0.499828 0.958219
vt 0.375000 0.958126
vt 0.416752 0.833455
s 0
usemtl Material
f 2/1/1 18/2/1 24/3/1
f 1/1/2 5/4/2 3/4/2
f 24/5/3 4/4/3 2/1/3
f 20/6/4 21/7/4 4/1/4
f 5/1/5 4/1/5 13/8/5
f 1/9/6 25/10/6 8/11/6
f 3/4/7 12/12/7 25/13/7
f 16/14/8 14/15/8 22/16/8
f 11/17/9 22/18/9 9/19/9
f 15/20/10 5/9/10 23/21/10
f 3/1/11 15/22/11 12/23/11
f 18/24/12 1/4/12 8/25/12
f 1/1/13 2/9/13 5/4/13
f 24/5/3 20/26/3 4/4/3
f 13/8/5 23/27/5 5/1/5
f 5/1/14 2/9/14 4/1/14
f 4/1/15 21/28/15 13/8/15
f 1/9/6 3/4/6 25/10/6
f 16/14/8 17/29/8 14/15/8
f 9/19/16 6/30/16 7/31/16
f 7/31/9 19/32/9 11/17/9
f 11/17/9 16/33/9 22/18/9
f 22/18/9 10/34/9 9/19/9
f 9/19/9 7/31/9 11/17/9
f 3/1/17 5/9/17 15/22/17
f 18/24/18 2/4/18 1/4/18
