# Blender 4.1.1
# www.blender.org
mtllib meDestruct_cell_018.mtl
o meDestruct_cell.018
v 0.000696 -0.000029 0.001935
v 0.333091 -0.332227 0.667145
v 1.000000 0.464899 0.536489
v 1.000000 0.334737 0.667407
v 1.000000 0.499983 0.501366
v 0.000625 0.998630 1.000000
v 1.000000 0.998613 1.000000
v 0.956902 0.291740 1.000000
v 0.333182 -0.331563 1.000000
v 1.000000 0.334841 1.000000
v 0.043976 -0.042339 1.000000
v 0.000839 0.000862 1.000000
v 1.000000 0.464899 0.536489
v 1.000000 0.499983 0.501366
v 0.000625 0.998630 1.000000
v 1.000000 0.998613 1.000000
v 1.000000 0.334737 0.667407
v 1.000000 0.334841 1.000000
v 0.333182 -0.331563 1.000000
v 0.043976 -0.042339 1.000000
v 0.000839 0.000862 1.000000
v 0.956902 0.291740 1.000000
vn 0.5786 -0.5784 -0.5750
vn 0.5774 -0.5777 -0.5770
vn 0.7069 -0.7073 0.0012
vn 0.7071 -0.7071 0.0002
vn -0.7071 -0.7071 0.0016
vn -0.7076 -0.7066 0.0007
vn -1.0000 -0.0002 0.0001
vn 1.0000 -0.0000 -0.0000
vn -0.0000 0.7071 -0.7071
vn -0.0000 -0.0000 1.0000
vn -0.0002 0.7069 -0.7073
vn -0.0000 0.0013 1.0000
vt 1.000000 0.000000
vt 1.000000 0.929624
vt 0.069568 0.000000
vt 0.929624 0.929624
vt 1.000000 0.951907
vt 1.000000 0.869774
vt 0.131365 0.000000
vt 0.930432 0.000000
vt 0.869774 0.869774
vt 0.000000 0.000000
vt 1.000000 0.129814
vt 1.000000 1.000000
vt 0.131365 0.131365
vt 0.047394 0.000000
vt 0.129814 0.129814
vt 0.047394 0.047394
vt 1.000000 0.047372
vt 0.558112 0.692061
vt 0.624827 0.750000
vt 0.541855 0.750000
vt 0.951907 0.951907
vt 0.952628 0.000000
vt 0.952383 0.096109
vt 0.624829 0.874922
vt 0.494708 0.869503
vt 0.929902 0.869730
vt 0.541842 0.708426
vt 0.562498 0.687671
vt 0.458555 0.833352
vt 0.536467 0.755387
vt 0.624827 0.750000
vt 0.500108 0.874895
s 0
usemtl Material
f 2/1/1 13/2/1 17/3/1
f 13/4/2 1/1/2 14/5/2
f 2/1/3 22/6/3 19/7/3
f 17/8/4 22/9/4 2/10/4
f 20/11/5 2/12/5 19/13/5
f 21/14/6 2/12/6 20/15/6
f 1/12/7 21/16/7 15/17/7
f 3/18/8 7/19/8 10/20/8
f 14/21/9 15/22/9 16/23/9
f 10/20/10 6/24/10 11/25/10
f 13/4/2 2/10/2 1/1/2
f 17/8/4 18/26/4 22/9/4
f 21/14/6 1/1/6 2/12/6
f 10/20/8 4/27/8 3/18/8
f 3/18/8 5/28/8 7/19/8
f 14/21/11 1/10/11 15/22/11
f 9/29/12 8/30/12 10/20/12
f 10/20/10 7/31/10 6/24/10
f 6/24/10 12/32/10 11/25/10
f 11/25/10 9/29/10 10/20/10
