# Blender 4.1.1
# www.blender.org
mtllib meDestruct_cell_005.mtl
o meDestruct_cell.005
v 0.000717 -0.665617 -0.666592
v 0.333493 -0.665370 -0.334370
v 0.665339 -0.665908 -0.333535
v 0.887199 -0.444647 -0.445064
v 0.001011 -0.001720 -0.001843
v 0.001253 -0.000815 -1.000000
v 1.000000 -0.001414 -0.999823
v 0.000792 -0.665246 -1.000000
v 0.578827 -0.666000 -1.000000
v 1.000000 -0.268658 -0.732482
v 1.000000 -0.332368 -0.669147
v 1.000000 -0.332508 -0.806225
v 0.734564 -0.597452 -1.000000
v 1.000000 -0.332127 -1.000000
v 0.665797 -0.666048 -1.000000
v 0.734564 -0.597452 -1.000000
v 1.000000 -0.332127 -1.000000
v 0.001253 -0.000815 -1.000000
v 1.000000 -0.001414 -0.999823
v 1.000000 -0.268658 -0.732482
v 0.000792 -0.665246 -1.000000
v 0.578827 -0.666000 -1.000000
v 0.665797 -0.666048 -1.000000
v 1.000000 -0.332368 -0.669147
v 1.000000 -0.332508 -0.806225
vn 0.0006 1.0000 0.0009
vn -0.0013 -1.0000 -0.0011
vn -0.5763 -0.5781 0.5777
vn -0.0030 -0.4492 0.8934
vn 0.4479 0.0015 0.8941
vn 0.5773 0.5757 0.5791
vn 0.5768 0.5777 0.5775
vn 0.7070 -0.7073 -0.0014
vn -0.0005 -1.0000 0.0002
vn -0.0016 -1.0000 0.0024
vn -0.0000 -0.0000 -1.0000
vn -1.0000 0.0007 -0.0002
vn 0.7062 -0.7080 0.0007
vn 1.0000 -0.0000 -0.0000
vn 0.0002 0.0005 -1.0000
vn 0.7063 -0.7079 0.0006
vn 0.7062 -0.7080 0.0006
vn 1.0000 -0.0000 0.0002
vt 0.952123 0.952123
vt 0.000000 0.000000
vt 0.952413 0.000168
vt 0.130810 0.000000
vt 1.000000 0.000000
vt 1.000000 0.869715
vt 1.000000 1.000000
vt 1.000000 0.048083
vt 0.048083 0.048083
vt 1.000000 0.047755
vt 0.821301 0.000000
vt 0.821722 0.691291
vt 0.131192 0.000000
vt 1.000000 0.869190
vt 0.929983 0.929983
vt 0.499898 0.375157
vt 0.458484 0.500000
vt 0.416744 0.458225
vt 1.000000 0.952122
vt 0.869715 0.869715
vt 1.000000 0.929983
vt 0.131192 0.131192
vt 0.499823 0.500022
vt 0.458454 0.541357
vt 0.458437 0.524222
vt 0.690924 0.000000
vt 0.416750 0.447353
vt 0.416844 0.375099
vt 0.499823 0.500000
vt 0.425318 0.466821
vt 0.309076 0.000000
vt 0.821301 0.821301
vt 0.466418 0.533440
s 0
usemtl Material
f 18/1/1 5/2/1 19/3/1
f 22/4/2 1/5/2 21/6/2
f 1/2/3 2/5/3 5/7/3
f 2/2/4 3/5/4 5/7/4
f 3/2/5 4/5/5 5/7/5
f 4/2/6 20/8/6 5/7/6
f 5/7/7 20/9/7 19/10/7
f 16/11/8 14/12/8 25/13/8
f 3/2/9 22/14/9 23/15/9
f 3/2/10 2/5/10 1/7/10
f 6/16/11 17/17/11 15/18/11
f 1/2/12 18/19/12 21/20/12
f 4/5/13 23/21/13 25/22/13
f 7/23/14 11/24/14 12/25/14
f 4/2/6 24/26/6 20/8/6
f 3/2/9 1/5/9 22/14/9
f 9/27/11 8/28/11 6/16/11
f 6/16/15 7/29/15 17/17/15
f 17/17/11 13/30/11 15/18/11
f 15/18/11 9/27/11 6/16/11
f 1/2/12 5/5/12 18/19/12
f 25/22/13 24/31/13 4/5/13
f 4/5/16 3/5/16 23/21/16
f 23/21/17 16/32/17 25/22/17
f 12/25/14 17/17/14 7/23/14
f 7/23/18 10/33/18 11/24/18
