# Blender 4.1.1
# www.blender.org
mtllib meDestruct_cell_015.mtl
o meDestruct_cell.015
v -0.003471 1.086985 0.001085
v -0.666594 1.418644 0.332734
v -0.667643 1.751493 -0.666417
v -0.668173 1.751751 0.332314
v -1.000000 2.083667 -0.666651
v -1.000000 1.751289 -0.998563
v -1.000000 1.085464 -0.000393
v -1.000000 1.085879 -0.998487
v -1.000000 1.418368 0.332492
v -1.000000 1.751544 0.331992
v -1.000000 2.084090 0.165866
v -1.000000 2.084135 0.134388
v -1.000000 1.172118 -0.998655
v -1.000000 2.083667 -0.666651
v -1.000000 1.751289 -0.998563
v -1.000000 2.084090 0.165866
v -1.000000 2.084135 0.134388
v -1.000000 1.085464 -0.000393
v -1.000000 1.418368 0.332492
v -1.000000 1.085879 -0.998487
v -1.000000 1.172118 -0.998655
v -1.000000 1.751544 0.331992
vn 0.5771 0.5771 -0.5779
vn 0.0015 -1.0000 -0.0004
vn 0.7073 0.7069 -0.0001
vn -0.0011 0.4469 0.8946
vn 0.7074 0.7068 0.0010
vn 0.7069 0.0001 -0.7073
vn 0.7082 -0.0014 -0.7060
vn 0.4486 0.0033 0.8937
vn -1.0000 -0.0000 -0.0000
vn -0.0007 0.0013 1.0000
vn -0.0000 -0.7071 0.7071
vn 0.7069 0.7073 -0.0004
vn -0.0010 0.0015 1.0000
vn 0.0001 -0.7071 0.7071
vt 0.868669 0.868669
vt 0.000000 0.000000
vt 0.868975 0.000000
vt 1.000000 0.000000
vt 1.000000 0.952027
vt 0.047324 0.000000
vt 0.952640 0.952640
vt 0.870094 0.000000
vt 0.868342 0.868342
vt 1.000000 0.952640
vt 0.870094 0.870094
vt 1.000000 1.000000
vt 0.129635 0.129635
vt 1.000000 0.131025
vt 0.952676 0.000000
vt 1.000000 0.129635
vt 0.624848 0.208331
vt 0.500072 0.125049
vt 0.583332 0.083501
vt 0.130583 0.000000
vt 0.952027 0.952027
vt 1.000000 0.868669
vt 0.624901 0.104267
vt 0.624906 0.108201
vt 0.583301 0.249820
vt 0.510904 0.249832
vt 0.500124 0.249811
vt 0.541685 0.083439
vt 1.000000 0.868342
vt 0.869417 0.000000
s 0
usemtl Material
f 14/1/1 3/2/1 15/3/1
f 1/4/2 18/5/2 20/6/2
f 3/4/3 17/7/3 1/2/3
f 16/8/4 22/9/4 4/2/4
f 4/2/5 17/10/5 16/11/5
f 3/12/6 21/13/6 15/14/6
f 3/12/7 20/15/7 21/16/7
f 4/2/8 2/4/8 1/12/8
f 5/17/9 7/18/9 10/19/9
f 4/4/10 19/20/10 2/2/10
f 2/2/11 18/21/11 1/2/11
f 3/4/12 14/22/12 17/7/12
f 4/2/5 1/4/5 17/10/5
f 3/12/7 1/2/7 20/15/7
f 11/23/9 12/24/9 5/17/9
f 5/17/9 6/25/9 13/26/9
f 13/26/9 8/27/9 7/18/9
f 7/18/9 9/28/9 10/19/9
f 10/19/9 11/23/9 5/17/9
f 5/17/9 13/26/9 7/18/9
f 4/4/13 22/29/13 19/20/13
f 2/2/14 19/30/14 18/21/14
