# Blender 4.1.1
# www.blender.org
mtllib meDestruct_cell_011.mtl
o meDestruct_cell.011
v -0.667663 -0.001129 0.667454
v -0.667305 -0.665927 0.667175
v -1.000000 -0.001208 1.000000
v -0.717496 -0.001037 1.000000
v -1.000000 -0.000671 0.717693
v -0.667218 -0.088321 1.000000
v -0.667502 -0.999077 1.000000
v -0.667265 -0.001106 1.000000
v -1.000000 -0.000674 0.667989
v -1.000000 -0.665990 0.667895
v -1.000000 -0.998756 1.000000
v -1.000000 -0.001208 1.000000
v -0.717496 -0.001037 1.000000
v -0.667265 -0.001106 1.000000
v -0.667218 -0.088321 1.000000
v -0.667502 -0.999077 1.000000
v -1.000000 -0.000671 0.717693
v -1.000000 -0.000674 0.667989
v -1.000000 -0.665990 0.667895
v -1.000000 -0.998756 1.000000
vn -0.0006 1.0000 0.0019
vn 1.0000 -0.0003 0.0003
vn 1.0000 0.0005 -0.0012
vn 0.0014 1.0000 -0.0001
vn -0.0022 0.0004 -1.0000
vn -0.0014 -0.7068 -0.7075
vn -1.0000 -0.0000 -0.0000
vn -0.0000 -0.0000 1.0000
vn -0.0016 0.0001 -1.0000
vn -0.0007 -0.7064 -0.7078
vt 0.868503 0.868503
vt 0.129842 0.129842
vt 0.868594 0.130578
vt 1.000000 0.000000
vt 1.000000 0.868810
vt 0.129506 0.000000
vt 0.868810 0.868810
vt 0.000000 0.000000
vt 0.870002 0.000000
vt 1.000000 0.868503
vt 0.868714 0.868714
vt 0.869110 0.000000
vt 0.870493 0.000000
vt 0.130890 0.000000
vt 0.416751 0.041513
vt 0.499849 0.000000
vt 0.499916 0.035288
vt 0.499862 0.958408
vt 0.499849 1.000000
vt 0.375115 0.958438
vt 1.000000 0.868714
vt 1.000000 0.129842
vt 0.870002 0.870002
vt 0.870040 0.869159
vt 0.499916 0.041501
vt 0.375156 0.000000
vt 0.488960 0.958402
vt 0.499870 0.964687
vt 0.375156 1.000000
s 0
usemtl Material
f 13/1/1 17/2/1 12/3/1
f 2/4/2 15/5/2 16/6/2
f 1/4/3 15/7/3 2/8/3
f 18/9/4 13/10/4 14/11/4
f 19/12/5 1/8/5 2/8/5
f 16/13/6 19/14/6 2/8/6
f 10/15/7 3/16/7 5/17/7
f 8/18/8 3/19/8 7/20/8
f 1/4/3 14/21/3 15/7/3
f 14/11/4 1/8/4 18/9/4
f 18/9/4 17/22/4 13/10/4
f 19/12/9 18/23/9 1/8/9
f 16/13/10 11/24/10 19/14/10
f 5/17/7 9/25/7 10/15/7
f 10/15/7 20/26/7 3/16/7
f 7/20/8 6/27/8 8/18/8
f 8/18/8 4/28/8 3/19/8
f 3/19/8 20/29/8 7/20/8
