# Blender 4.1.1
# www.blender.org
mtllib meDestruct_cell_021.mtl
o meDestruct_cell.021
v -0.667947 1.085653 0.667381
v -0.667692 1.750692 0.333939
v -0.667700 1.418631 0.334125
v -1.000000 1.750684 1.000000
v -1.000000 1.750705 0.956659
v -0.668004 1.750373 1.000000
v -1.000000 1.750164 0.334072
v -1.000000 1.085580 1.000000
v -1.000000 1.085640 0.667345
v -0.667889 1.085631 1.000000
v -0.667868 1.109030 1.000000
v -1.000000 1.706467 0.334096
v -1.000000 1.418795 0.334730
v -1.000000 1.128894 0.624054
v -1.000000 1.750684 1.000000
v -0.668004 1.750373 1.000000
v -1.000000 1.085580 1.000000
v -1.000000 1.085640 0.667345
v -1.000000 1.750164 0.334072
v -1.000000 1.706467 0.334096
v -1.000000 1.418795 0.334730
v -0.667889 1.085631 1.000000
v -0.667868 1.109030 1.000000
v -1.000000 1.128894 0.624054
v -1.000000 1.750705 0.956659
vn 0.0009 1.0000 0.0005
vn -0.0016 1.0000 -0.0009
vn -1.0000 -0.0000 -0.0000
vn 1.0000 -0.0009 -0.0002
vn -0.0000 -0.0000 1.0000
vn -0.0004 -0.0006 -1.0000
vn -0.0018 -0.0022 -1.0000
vn -0.0016 -0.7064 -0.7078
vn 0.0001 -0.7074 -0.7068
vn 1.0000 -0.0000 0.0005
vn 0.0002 -1.0000 -0.0001
vn 1.0000 0.0002 0.0004
vn -0.0000 -1.0000 -0.0002
vt 0.070109 0.000000
vt 1.000000 0.869086
vt 0.939438 0.869033
vt 0.000000 0.000000
vt 0.868411 0.000000
vt 0.869086 0.869086
vt 0.505501 0.046993
vt 0.500087 0.000000
vt 0.583228 0.005418
vt 1.000000 0.929724
vt 0.868567 0.868567
vt 0.500087 1.000000
vt 0.503018 0.958483
vt 0.583186 0.958501
vt 1.000000 1.000000
vt 0.868408 0.000000
vt 1.000000 0.131589
vt 0.868408 0.868408
vt 0.868612 0.000000
vt 0.868612 0.868612
vt 0.870099 0.000000
vt 0.870099 0.870099
vt 1.000000 0.000000
vt 1.000000 0.870015
vt 0.929891 0.000000
vt 0.999540 0.868284
vt 0.868567 0.000000
vt 0.583160 0.083241
vt 0.577698 0.083238
vt 0.541739 0.083159
vt 0.500094 0.041582
vt 0.583225 0.000000
vt 0.583225 1.000000
vt 0.500093 0.958486
vt 0.929724 0.929724
vt 0.129985 0.000000
s 0
usemtl Material
f 16/1/1 25/2/1 15/3/1
f 2/4/2 19/5/2 25/6/2
f 14/7/3 17/8/3 5/9/3
f 1/4/4 23/10/4 22/11/4
f 17/12/5 11/13/5 6/14/5
f 2/15/6 12/16/6 19/17/6
f 12/18/7 3/4/7 13/19/7
f 13/20/8 3/4/8 24/21/8
f 24/22/9 1/23/9 9/24/9
f 16/25/10 3/4/10 2/4/10
f 8/26/11 1/4/11 22/27/11
f 16/1/1 2/23/1 25/2/1
f 5/9/3 7/28/3 20/29/3
f 20/29/3 21/30/3 14/7/3
f 14/7/3 18/31/3 17/8/3
f 17/8/3 4/32/3 5/9/3
f 5/9/3 20/29/3 14/7/3
f 1/4/4 3/23/4 23/10/4
f 6/14/5 4/33/5 17/12/5
f 17/12/5 10/34/5 11/13/5
f 2/15/6 3/4/6 12/16/6
f 24/22/9 3/4/9 1/23/9
f 16/25/12 23/35/12 3/4/12
f 8/26/13 9/36/13 1/4/13
