# Blender 4.1.1
# www.blender.org
mtllib meDestruct_cell_006.mtl
o meDestruct_cell.006
v -0.000996 1.085390 -0.002049
v -0.001267 1.750465 -0.667305
v -0.665943 1.750313 -0.666748
v -0.998600 1.750766 -1.000000
v -0.000928 1.750757 -1.000000
v -0.000883 1.718923 -1.000000
v -0.000859 1.085770 -1.000000
v -0.997734 1.085544 -1.000000
v -0.997734 1.085544 -1.000000
v -0.998600 1.750766 -1.000000
v -0.000928 1.750757 -1.000000
v -0.000883 1.718923 -1.000000
v -0.000859 1.085770 -1.000000
vn -0.0002 1.0000 0.0009
vn 1.0000 0.0014 0.0010
vn 1.0000 -0.0000 0.0001
vn 0.0002 -1.0000 -0.0004
vn 0.0004 0.7072 0.7070
vn -0.0000 -0.0000 -1.0000
vn -0.7077 -0.0009 0.7065
vn -0.0000 1.0000 0.0014
vn -0.7075 -0.0011 0.7067
vt 0.868862 0.000000
vt 0.000000 0.000000
vt 1.000000 0.952093
vt 0.868862 0.868862
vt 0.952696 0.000000
vt 0.952093 0.952093
vt 1.000000 0.951891
vt 0.047304 0.000000
vt 1.000000 0.000000
vt 1.000000 1.000000
vt 0.500082 0.250283
vt 0.583234 0.374884
vt 0.579255 0.374890
vt 0.951891 0.951891
vt 1.000000 0.869862
vt 0.869862 0.869862
vt 0.500111 0.374893
vt 0.583235 0.250175
s 0
usemtl Material
f 11/1/1 3/2/1 2/2/1
f 2/2/2 12/3/2 11/4/2
f 1/2/3 13/5/3 12/6/3
f 8/7/4 13/8/4 1/9/4
f 1/2/5 2/9/5 3/10/5
f 9/11/6 5/12/6 6/13/6
f 8/14/7 3/9/7 10/15/7
f 11/1/8 10/16/8 3/2/8
f 2/2/2 1/9/2 12/3/2
f 6/13/6 7/17/6 9/11/6
f 9/11/6 4/18/6 5/12/6
f 8/14/9 1/2/9 3/9/9
