# Blender 4.1.1
# www.blender.org
mtllib meDestruct_cell_002.mtl
o meDestruct_cell.002
v -1.000000 1.000000 1.000000
v -0.667494 0.667177 0.334124
v -0.445495 0.889702 0.445547
v -0.334567 1.000000 1.000000
v -0.334508 1.000000 0.709982
v -0.667102 0.667405 1.000000
v -0.334706 1.000000 0.666354
v -0.445030 1.000000 0.445546
v -1.000000 0.999859 0.168278
v -0.473783 1.000000 0.431053
v -1.000000 0.667489 0.333720
v -1.000000 0.667260 0.955422
v -1.000000 0.667275 1.000000
v -1.000000 0.999859 0.168278
v -0.473783 1.000000 0.431053
v -0.334567 1.000000 1.000000
v -0.667102 0.667405 1.000000
v -1.000000 0.667489 0.333720
v -1.000000 0.667260 0.955422
v -1.000000 0.667275 1.000000
v -0.334508 1.000000 0.709982
v -0.445030 1.000000 0.445546
v -0.334706 1.000000 0.666354
vn 0.7087 -0.7055 -0.0032
vn 0.8945 -0.0038 -0.4470
vn 0.4468 0.0005 -0.8947
vn 0.0007 -0.4456 -0.8952
vn -0.0009 -1.0000 -0.0004
vn 0.0004 -1.0000 0.0003
vn 0.4501 -0.0019 -0.8930
vn 0.7070 -0.7072 -0.0002
vn -0.0000 -0.0000 1.0000
vn -0.0000 1.0000 -0.0000
vn -1.0000 -0.0000 -0.0000
vn 0.7072 -0.7070 0.0001
vn -0.0002 1.0000 -0.0002
vt 1.000000 0.000000
vt 0.869399 0.869399
vt 0.000000 0.000000
vt 0.689104 0.000000
vt 0.688095 0.688095
vt 0.999768 0.868973
vt 0.130068 0.000000
vt 0.868838 0.868838
vt 0.869024 0.000000
vt 0.130976 0.000000
vt 1.000000 0.868328
vt 0.868328 0.868328
vt 0.930528 0.000000
vt 0.930624 0.868396
vt 0.130068 0.130068
vt 0.310896 0.000000
vt 1.000000 0.869399
vt 0.069472 0.000000
vt 0.583426 0.958388
vt 0.625000 1.000000
vt 0.583409 1.000000
vt 0.875000 0.750000
vt 0.791813 0.713748
vt 0.805629 0.680693
vt 0.624982 0.103965
vt 0.583408 0.005572
vt 0.583409 0.000000
vt 1.000000 0.688095
vt 1.000000 1.000000
vt 0.869475 0.692501
vt 0.625000 0.916821
vt 0.809223 0.678881
vt 0.875000 0.646035
vt 0.791821 0.750000
vt 0.791838 0.708294
vt 0.625000 0.000000
vt 0.583436 0.083285
s 0
usemtl Material
f 3/1/1 21/2/1 2/3/1
f 3/3/2 22/4/2 23/5/2
f 14/6/3 15/7/3 2/1/3
f 14/8/4 2/3/4 18/9/4
f 18/10/5 2/1/5 19/11/5
f 19/12/6 17/13/6 20/14/6
f 3/1/7 15/15/7 22/16/7
f 21/17/8 17/18/8 2/1/8
f 6/19/9 1/20/9 13/21/9
f 1/22/10 5/23/10 8/24/10
f 9/25/11 12/26/11 13/27/11
f 3/1/1 23/28/1 21/2/1
f 19/12/6 2/3/6 17/13/6
f 3/1/7 2/29/7 15/15/7
f 21/17/12 16/30/12 17/18/12
f 6/19/9 4/31/9 1/20/9
f 10/32/13 9/33/13 1/22/13
f 1/22/10 4/34/10 5/23/10
f 5/23/10 7/35/10 8/24/10
f 8/24/10 10/32/10 1/22/10
f 13/27/11 1/36/11 9/25/11
f 9/25/11 11/37/11 12/26/11
