# Blender 4.1.1
# www.blender.org
mtllib meDestruct_cell_009.mtl
o meDestruct_cell.009
v 1.000000 1.000000 -1.000000
v 0.667722 0.667175 -0.667240
v 0.667607 1.000000 -0.667347
v 1.000000 0.999992 -0.334451
v 0.667334 1.000000 -1.000000
v 0.667483 0.667282 -1.000000
v 0.999704 0.334843 -1.000000
v 0.667607 1.000000 -0.667347
v 1.000000 0.999992 -0.334451
v 0.667334 1.000000 -1.000000
v 0.667483 0.667282 -1.000000
v 0.999704 0.334843 -1.000000
vn -0.7076 -0.0000 0.7066
vn -0.7073 -0.7069 0.0003
vn 0.0005 -0.7073 0.7069
vn -0.0000 -0.0000 -1.0000
vn 1.0000 -0.0004 -0.0000
vn -0.0000 1.0000 -0.0000
vn -1.0000 -0.0003 0.0007
vn -1.0000 -0.0004 0.0008
vt 0.870032 0.000022
vt 0.868661 0.868661
vt 0.000000 0.000000
vt 1.000000 1.000000
vt 0.131122 0.131122
vt 1.000000 0.131012
vt 0.130624 0.130237
vt 1.000000 0.129990
vt 0.583410 0.458435
vt 0.625000 0.500000
vt 0.541855 0.499963
vt 0.541855 0.500000
vt 0.624999 0.583194
vt 0.666549 0.541582
vt 0.625000 0.583194
vt 1.000000 0.868661
vt 0.131123 0.000000
vt 1.000000 0.000000
vt 0.625000 0.458417
vt 0.666583 0.500000
vt 0.999807 0.869295
s 0
usemtl Material
f 4/1/1 8/2/1 2/3/1
f 2/4/2 11/5/2 12/6/2
f 2/4/3 12/7/3 4/8/3
f 6/9/4 1/10/4 7/11/4
f 7/12/5 1/10/5 9/13/5
f 1/10/6 3/14/6 9/15/6
f 8/16/7 11/17/7 2/18/7
f 6/9/4 10/19/4 1/10/4
f 1/10/6 10/20/6 3/14/6
f 8/16/8 5/21/8 11/17/8
