# Blender 4.1.1
# www.blender.org
mtllib meDestruct_cell_012.mtl
o meDestruct_cell.012
v 0.001060 0.002313 -0.001261
v 0.001302 0.666637 -0.665453
v 0.665796 0.667320 -0.665848
v 0.999274 1.000000 -0.087135
v 0.999363 1.000000 -0.000794
v 0.998133 1.000000 -0.333581
v 0.001038 1.000000 -0.000540
v 0.001192 1.000000 -0.666029
v 0.088140 1.000000 -0.666080
v 0.666539 1.000000 -0.665467
v 0.999274 1.000000 -0.087135
v 0.999363 1.000000 -0.000794
v 0.001038 1.000000 -0.000540
v 0.001192 1.000000 -0.666029
v 0.088140 1.000000 -0.666080
v 0.666539 1.000000 -0.665467
v 0.998133 1.000000 -0.333581
vn 0.7069 -0.7073 -0.0007
vn 0.7091 -0.7051 -0.0033
vn 0.0003 -0.0007 1.0000
vn 0.0003 -0.7070 -0.7072
vn -0.0006 -0.0017 -1.0000
vn 0.0011 0.0011 -1.0000
vn 0.7074 -0.0008 -0.7068
vn -1.0000 -0.0003 -0.0002
vn -0.0000 1.0000 -0.0000
vn -1.0000 -0.0000 -0.0004
vt 0.952596 0.952596
vt 1.000000 0.000000
vt 1.000000 0.870144
vt 0.000000 0.000000
vt 0.868349 0.000000
vt 0.870144 0.870144
vt 0.048163 0.000000
vt 1.000000 0.952596
vt 1.000000 1.000000
vt 1.000000 0.130848
vt 0.869385 0.000000
vt 1.000000 0.130458
vt 0.130848 0.130848
vt 0.130458 0.130458
vt 1.000000 0.131651
vt 0.048163 0.048163
vt 0.130615 0.000000
vt 0.625080 0.624901
vt 0.625233 0.583302
vt 0.738982 0.541740
vt 0.749851 0.541746
vt 0.749870 0.624933
vt 0.625091 0.614108
vt 0.666683 0.541817
s 0
usemtl Material
f 12/1/1 3/2/1 11/3/1
f 3/4/2 17/5/2 11/6/2
f 13/7/3 1/2/3 12/8/3
f 2/4/4 3/2/4 1/9/4
f 15/10/5 2/4/5 14/11/5
f 16/12/6 3/9/6 15/13/6
f 3/9/7 16/14/7 17/15/7
f 2/2/8 13/16/8 14/17/8
f 5/18/9 6/19/9 9/20/9
f 12/1/1 1/4/1 3/2/1
f 15/10/5 3/9/5 2/4/5
f 2/2/10 1/9/10 13/16/10
f 8/21/9 7/22/9 5/18/9
f 5/18/9 4/23/9 6/19/9
f 6/19/9 10/24/9 9/20/9
f 9/20/9 8/21/9 5/18/9
