# Blender 4.1.1
# www.blender.org
mtllib meDestruct_cell_003.mtl
o meDestruct_cell.003
v 0.000145 1.087447 0.001379
v -0.442905 1.974941 0.444284
v -0.268788 2.084884 0.728994
v -0.332876 2.084884 0.664671
v -0.422372 2.084884 0.423439
v -0.443378 2.084884 0.444527
v 0.000607 2.084884 0.000977
v 0.999518 2.084884 0.001666
v 1.000000 1.586648 0.500368
v 0.000668 2.084884 0.998511
v 1.000000 2.084884 0.998221
v -0.422372 2.084884 0.423439
v -0.443378 2.084884 0.444527
v 0.000607 2.084884 0.000977
v 1.000000 1.586648 0.500368
v 0.999518 2.084884 0.001666
v 0.000668 2.084884 0.998511
v 1.000000 2.084884 0.998221
v -0.332876 2.084884 0.664671
v -0.268788 2.084884 0.728994
vn -0.5787 -0.5767 0.5766
vn -0.7085 -0.0015 -0.7057
vn -0.7067 -0.0000 -0.7075
vn 0.0007 -0.0004 -1.0000
vn 0.5767 -0.5777 -0.5777
vn -0.5776 -0.5770 0.5775
vn -0.8937 -0.0048 0.4486
vn 0.0002 -0.7068 0.7074
vn -0.0000 1.0000 -0.0000
vn 1.0000 0.0005 -0.0005
vn -0.0000 -0.7070 0.7072
vn -0.0001 1.0000 -0.0000
vt 1.000000 0.000000
vt 0.048142 0.048142
vt 0.314527 0.000000
vt 1.000000 0.047826
vt 0.000000 0.000000
vt 0.686963 0.000000
vt 0.047826 0.047826
vt 1.000000 0.047585
vt 1.000000 1.000000
vt 1.000000 0.047944
vt 0.047585 0.047585
vt 1.000000 0.048077
vt 0.048404 0.047485
vt 0.047649 0.047649
vt 1.000000 0.048142
vt 1.000000 0.685474
vt 0.313037 0.000000
vt 1.000000 0.047649
vt 0.048077 0.048077
vt 0.143936 0.096141
vt 0.791609 0.708084
vt 0.749916 0.749814
vt 0.625060 0.625208
vt 0.562720 0.687546
vt 0.625000 0.625268
vt 0.625000 0.749778
vt 0.749924 0.625122
vt 0.802796 0.677930
vt 0.805422 0.680566
vt 0.783598 0.716124
vt 0.625000 0.749778
s 0
usemtl Material
f 2/1/1 20/2/1 19/3/1
f 12/4/2 2/5/2 13/6/2
f 12/7/3 14/8/3 1/9/3
f 16/10/4 1/9/4 14/11/4
f 15/12/5 1/9/5 16/13/5
f 1/9/6 17/14/6 20/15/6
f 2/1/7 19/16/7 13/17/7
f 17/18/8 15/19/8 11/20/8
f 4/21/9 10/22/9 8/23/9
f 9/24/10 8/25/10 18/26/10
f 2/1/1 1/9/1 20/2/1
f 12/4/2 1/9/2 2/5/2
f 17/18/11 1/9/11 15/19/11
f 8/23/9 7/27/9 5/28/9
f 5/28/9 6/29/9 4/21/9
f 4/21/12 3/30/12 10/22/12
f 10/22/9 18/31/9 8/23/9
f 8/23/9 5/28/9 4/21/9
