# Blender v2.77 (sub 0) OBJ File: ''
# www.blender.org
mtllib head.mtl
o Cylinder
v 0.000000 2.000000 0.000000
v 0.390181 1.961571 0.000000
v 0.765367 1.847759 0.000000
v 1.111140 1.662939 0.000000
v 1.414214 1.414214 0.000000
v 1.662939 1.111140 0.000000
v 1.847759 0.765367 0.000000
v 1.961571 0.390181 0.000000
v 2.000000 0.000000 0.000000
v 1.961571 -0.390180 -0.000000
v 1.847759 -0.765367 -0.000000
v 1.662939 -1.111140 -0.000000
v 1.414214 -1.414214 -0.000000
v 1.111140 -1.662939 -0.000000
v 0.765367 -1.847759 -0.000000
v 0.390180 -1.961571 -0.000000
v -0.000001 -2.000000 -0.000000
v -0.390181 -1.961570 -0.000000
v -0.765368 -1.847759 -0.000000
v -1.111141 -1.662939 -0.000000
v -1.414214 -1.414213 -0.000000
v -1.662940 -1.111139 -0.000000
v -1.847760 -0.765365 -0.000000
v -1.961571 -0.390179 -0.000000
v -2.000000 0.000002 0.000000
v -1.961570 0.390183 0.000000
v -1.847758 0.765369 0.000000
v -1.662938 1.111143 0.000000
v -1.414212 1.414215 0.000000
v -1.111138 1.662941 0.000000
v -0.765364 1.847760 0.000000
v -0.390178 1.961571 0.000000
vt 0.2146 0.5979
vt 0.4421 0.7479
vt 0.0279 0.7807
vt 0.2554 0.9307
vt 0.2146 0.9307
vt 0.1746 0.9243
vt 0.1369 0.9117
vt 0.1030 0.8935
vt 0.0741 0.8704
vt 0.0515 0.8431
vt 0.0359 0.8128
vt 0.0279 0.7479
vt 0.0359 0.7157
vt 0.0515 0.6855
vt 0.0741 0.6582
vt 0.1030 0.6350
vt 0.1369 0.6168
vt 0.1746 0.6043
vt 0.2554 0.5979
vt 0.2954 0.6043
vt 0.3331 0.6168
vt 0.3670 0.6350
vt 0.3959 0.6582
vt 0.4185 0.6855
vt 0.4342 0.7157
vt 0.4421 0.7807
vt 0.4342 0.8128
vt 0.4185 0.8431
vt 0.3959 0.8704
vt 0.3670 0.8935
vt 0.3331 0.9117
vt 0.2954 0.9243
vn -0.0000 -0.0000 1.0000
usemtl None
s off
f 19/1/1 11/2/1 27/3/1
f 3/4/1 2/5/1 1/6/1
f 1/6/1 32/7/1 3/4/1
f 31/8/1 30/9/1 29/10/1
f 29/10/1 28/11/1 27/3/1
f 27/3/1 26/12/1 25/13/1
f 25/13/1 24/14/1 27/3/1
f 23/15/1 22/16/1 19/1/1
f 21/17/1 20/18/1 19/1/1
f 19/1/1 18/19/1 17/20/1
f 17/20/1 16/21/1 15/22/1
f 15/22/1 14/23/1 13/24/1
f 13/24/1 12/25/1 11/2/1
f 11/2/1 10/26/1 9/27/1
f 9/27/1 8/28/1 11/2/1
f 7/29/1 6/30/1 5/31/1
f 5/31/1 4/32/1 3/4/1
f 3/4/1 32/7/1 31/8/1
f 31/8/1 29/10/1 3/4/1
f 27/3/1 24/14/1 23/15/1
f 22/16/1 21/17/1 19/1/1
f 19/1/1 17/20/1 11/2/1
f 15/22/1 13/24/1 11/2/1
f 11/2/1 8/28/1 7/29/1
f 7/29/1 5/31/1 11/2/1
f 3/4/1 29/10/1 27/3/1
f 27/3/1 23/15/1 19/1/1
f 17/20/1 15/22/1 11/2/1
f 11/2/1 5/31/1 3/4/1
f 3/4/1 27/3/1 11/2/1
