# Blender v2.90.1 OBJ File: ''
# www.blender.org
mtllib spine.mtl
o Alpha_Surface_Alpha_SurfaceMesh
v 0.034471 0.008016 0.115490
v 0.080648 -0.063786 0.092131
v 0.128346 0.069383 0.031926
v 0.118973 0.077551 0.006818
v 0.032428 0.021940 0.081445
v 0.130726 -0.027378 0.019482
v 0.137127 0.061174 -0.036168
v 0.132527 -0.015232 -0.067216
v 0.018980 0.023782 -0.033366
v 0.075476 0.040355 -0.102387
v -0.055238 0.040572 -0.114853
v 0.040846 -0.080183 0.105906
v -0.025565 -0.071773 0.111792
v -0.072187 -0.027845 -0.118215
v 0.054668 -0.031003 -0.065440
v -0.041634 -0.025434 -0.052357
v 0.047072 -0.041974 -0.148760
v -0.032025 -0.037988 -0.150469
v -0.020738 -0.072892 0.086236
v 0.006151 -0.054637 0.035030
v -0.019600 0.024433 0.009898
v -0.040671 0.009762 0.111178
v -0.129225 0.071946 0.014261
v -0.067479 -0.052615 0.096057
v -0.043633 0.025117 0.072570
v -0.117878 0.078893 -0.011152
v -0.128446 0.064992 -0.052095
v -0.120639 -0.013885 0.020654
v -0.123490 -0.001305 -0.058383
vt 0.727171 0.158317
vt 0.661697 0.119701
vt 0.775099 0.030477
vt 0.802771 0.049826
vt 0.766389 0.127698
vt 0.229998 0.180785
vt 0.273659 0.179895
vt 0.227089 0.199072
vt 0.266545 0.212730
vt 0.223364 0.192201
vt 0.563855 0.620645
vt 0.572946 0.607302
vt 0.572064 0.631089
vt 0.647555 0.161174
vt 0.657037 0.228395
vt 0.213298 0.857483
vt 0.243609 0.780539
vt 0.247744 0.842489
vt 0.195970 0.792121
vt 0.163223 0.566683
vt 0.253718 0.558194
vt 0.289483 0.654135
vt 0.140483 0.660969
vt 0.695273 0.036205
vt 0.040637 0.708286
vt 0.035946 0.623701
vt 0.851930 0.602856
vt 0.881319 0.614024
vt 0.849499 0.615249
vt 0.919807 0.579836
vt 0.901796 0.604600
vt 0.261720 0.735456
vt 0.285188 0.737713
vt 0.036487 0.730698
vt 0.285082 0.814670
vt 0.864327 0.574772
vt 0.825064 0.133199
vt 0.836675 0.108603
vt 0.570290 0.843751
vt 0.618912 0.968788
vt 0.526742 0.898354
vt 0.823588 0.069428
vt 0.732990 0.218890
vt 0.813337 0.327534
vt 0.680680 0.266797
vt 0.766398 0.215050
vt 0.759011 0.171967
vt 0.830518 0.313481
vt 0.798105 0.257699
vt 0.636956 0.800031
vt 0.522835 0.748364
vt 0.821418 0.375083
vt 0.734601 0.341839
vt 0.753036 0.400850
vt 0.329849 0.577580
vt 0.827808 0.356612
vt 0.405808 0.613963
vt 0.399338 0.698781
vt 0.192629 0.829158
vt 0.819816 0.595013
vt 0.812217 0.583585
vt 0.282752 0.890954
vt 0.258815 0.892452
vt 0.404148 0.720332
vt 0.623854 0.671761
vt 0.711651 0.768544
vt 0.736574 0.838537
vn 0.1774 0.4576 0.8713
vn 0.6368 -0.6106 0.4708
vn 0.5899 0.6451 0.4857
vn 0.0802 0.9964 0.0285
vn -0.1671 0.9507 0.2611
vn 0.8042 -0.5801 0.1294
vn 0.7524 0.5777 -0.3165
vn 0.7883 -0.4480 -0.4218
vn -0.1464 0.9871 0.0648
vn 0.2802 0.7303 -0.6230
vn -0.1748 0.7396 -0.6500
vn 0.2352 -0.8287 0.5078
vn -0.2660 -0.6807 0.6826
vn -0.6028 -0.6341 -0.4842
vn 0.0844 -0.9960 -0.0296
vn -0.1818 -0.9816 -0.0583
vn 0.2755 -0.5652 -0.7776
vn -0.2473 -0.5891 -0.7693
vn -0.2146 -0.9558 -0.2011
vn -0.0433 -0.9494 -0.3111
vn 0.2267 0.9725 0.0530
vn -0.2645 0.4876 0.8320
vn -0.6546 0.6425 0.3982
vn -0.6706 -0.5459 0.5023
vn 0.2026 0.9465 0.2513
vn -0.0773 0.9970 0.0001
vn -0.7172 0.5655 -0.4072
vn -0.8183 -0.5565 0.1440
vn -0.8191 -0.4972 -0.2860
usemtl Material.001
s 1
f 1/1/1 2/2/2 3/3/3
f 1/1/1 4/4/4 5/5/5
f 4/4/4 1/1/1 3/3/3
f 3/6/3 6/7/6 7/8/7
f 6/7/6 8/9/8 7/8/7
f 7/8/7 4/10/4 3/6/3
f 9/11/9 10/12/10 11/13/11
f 12/14/12 1/1/1 13/15/13
f 14/16/14 15/17/15 16/18/16
f 15/17/15 14/16/14 17/19/17
f 17/20/17 18/21/18 11/22/11
f 11/22/11 10/23/10 17/20/17
f 2/2/2 1/1/1 12/14/12
f 2/2/2 6/24/6 3/3/3
f 10/23/10 7/25/7 17/20/17
f 8/26/8 17/20/17 7/25/7
f 19/27/19 12/28/12 13/29/13
f 12/28/12 6/30/6 2/31/2
f 8/32/8 6/33/6 15/17/15
f 8/32/8 15/17/15 17/19/17
f 7/25/7 10/23/10 4/34/4
f 20/35/20 16/18/16 15/17/15
f 15/17/15 6/33/6 20/35/20
f 20/36/20 12/28/12 19/27/19
f 12/28/12 20/36/20 6/30/6
f 21/37/21 5/5/5 9/38/9
f 9/39/9 4/40/4 10/41/10
f 5/5/5 4/4/4 9/42/9
f 22/43/22 23/44/23 24/45/24
f 22/43/22 1/1/1 25/46/25
f 1/1/1 5/47/5 25/46/25
f 26/48/26 22/43/22 25/49/25
f 22/43/22 26/48/26 23/44/23
f 21/50/21 9/39/9 11/51/11
f 22/43/22 13/15/13 1/1/1
f 23/44/23 27/52/27 28/53/28
f 28/53/28 27/52/27 29/54/29
f 14/55/14 11/22/11 18/21/18
f 26/56/26 27/52/27 23/44/23
f 29/57/29 27/58/27 14/55/14
f 14/16/14 18/59/18 17/19/17
f 22/43/22 24/45/24 13/15/13
f 24/45/24 23/44/23 28/53/28
f 27/58/27 11/22/11 14/55/14
f 24/60/24 19/27/19 13/29/13
f 28/61/28 19/27/19 24/60/24
f 28/62/28 29/63/29 16/18/16
f 16/18/16 29/63/29 14/16/14
f 11/22/11 27/58/27 26/64/26
f 28/62/28 16/18/16 20/35/20
f 20/36/20 19/27/19 28/61/28
f 26/65/26 21/50/21 11/51/11
f 25/66/25 21/50/21 26/65/26
f 21/50/21 25/66/25 5/67/5
