# Blender 4.1.1
# www.blender.org
mtllib door1.mtl
g Cube_Mesh
v -0.831028 1.718764 2.176680
v -0.831028 -2.117621 2.176680
v -0.831028 1.718764 -2.176680
v -0.831028 -2.117621 -2.176680
v 0.831028 1.718764 2.176680
v 0.831028 -2.117621 2.176680
v 0.831028 1.718764 -2.176680
v 0.831028 -2.117621 -2.176680
v -0.831028 2.418215 -3.309584
v -0.831028 2.418215 3.309584
v -0.831028 -3.414906 3.309584
v -0.831028 -3.414906 -3.309584
v 0.831028 -3.414906 -3.309584
v 0.831028 2.418215 -3.309584
v 0.831028 2.418215 3.309584
v 0.831028 -3.414906 3.309584
v -0.831028 1.718764 2.176680
v -0.831028 -2.117621 2.176680
v 0.831028 1.718764 2.176680
v 0.831028 -2.117621 2.176680
v 0.383312 -1.531899 2.176680
v 0.383312 -1.531899 -2.176680
v -0.289684 -1.531899 2.176680
v -0.289684 -1.531899 -2.176680
v -0.831028 -3.414906 -2.176680
v 0.831028 -3.414906 -2.176680
v 0.831028 -3.414906 2.176680
v -0.831028 -3.414906 2.176680
vn -0.0000 -0.0000 -1.0000
vn -0.0000 -0.0000 1.0000
vn -0.0000 1.0000 -0.0000
vn -0.0000 -1.0000 -0.0000
vn -1.0000 -0.0000 -0.0000
vn 1.0000 -0.0000 -0.0000
vn 0.7945 0.6073 -0.0000
vn -0.7344 0.6787 -0.0000
vt 0.000000 0.000000
vt 0.322322 0.322322
vt 0.000000 0.322322
vt 0.000000 0.322322
vt 0.322322 0.644644
vt 0.000000 0.644644
vt 0.322322 0.322322
vt 0.644644 0.000000
vt 0.644644 0.322322
vt 0.322322 0.377489
vt 0.644644 0.322322
vt 0.644644 0.377489
vt 0.055167 0.928316
vt 0.322322 0.966965
vt 0.000000 0.966965
vt 0.055167 0.716328
vt 0.000000 0.644644
vt 0.055167 0.644644
vt 0.267155 0.716328
vt 0.267155 0.928316
vt 0.699811 0.071684
vt 0.644644 0.322322
vt 0.644644 0.000000
vt 0.699811 0.283672
vt 0.966965 0.322322
vt 0.699811 0.000000
vt 0.911798 0.071684
vt 0.911798 0.283672
vt 0.644643 0.644644
vt 0.856631 0.557818
vt 0.856631 0.644644
vt 0.856631 0.322322
vt 0.644644 0.427304
vt 0.644644 0.322322
vt 0.322322 0.644644
vt 0.644644 0.589477
vt 0.644644 0.644644
vt 0.911798 0.000000
vt 0.322322 0.644644
vt 0.267155 0.644644
vt 0.322322 0.589477
vt 0.966965 0.000000
vt 0.644644 0.557818
vt 0.856631 0.427304
vt 0.928316 0.409147
vt 0.928316 0.644644
vt 0.856631 0.322322
vt 1.000000 0.322322
vt 0.928316 0.644644
vt 0.928316 0.322322
vt 0.534310 0.966965
vt 0.322322 0.861983
vt 0.322322 0.731469
vt 0.746297 0.966965
vt 0.534310 0.644644
vt 0.746297 0.644644
vt 0.958285 0.966965
vt 0.958285 0.644644
vt 0.322322 0.000000
vt 0.322322 0.322322
vt 0.322322 0.000000
vt 0.322322 0.322322
vt 0.928316 0.322322
vt 0.928316 0.539661
vt 0.856631 0.644643
vt 1.000000 0.644644
vt 0.322322 0.644644
vt 0.534310 0.644644
vt 0.322322 0.966965
vt 0.534310 0.966965
s 0
usemtl Material
f 12/1/1 9/3/1 14/2/1
f 16/4/2 15/6/2 10/5/2
f 14/7/3 9/9/3 10/8/3
f 28/10/4 27/12/4 16/11/4
f 1/13/5 10/15/5 9/14/5
f 2/16/5 11/17/5 10/15/5
f 2/16/5 28/18/5 11/17/5
f 4/19/5 3/20/5 9/14/5
f 8/21/6 13/23/6 14/22/6
f 7/24/6 14/22/6 15/25/6
f 8/21/6 26/26/6 13/23/6
f 6/27/6 5/28/6 15/25/6
f 6/29/7 8/31/7 22/30/7
f 4/32/8 2/34/8 23/33/8
f 12/35/4 13/37/4 26/36/4
f 8/21/6 6/27/6 27/38/6
f 12/39/5 25/40/5 4/19/5
f 25/41/4 26/36/4 27/12/4
f 16/42/6 27/38/6 6/27/6
f 2/16/5 4/19/5 25/40/5
f 23/9/2 6/9/2 21/9/2
f 21/43/3 22/30/3 24/44/3
f 22/45/1 26/47/1 4/46/1
f 2/48/2 28/50/2 27/49/2
f 2/9/2 6/9/2 23/9/2
f 17/51/1 21/53/1 23/52/1
f 3/54/4 7/56/4 19/55/4
f 7/57/2 3/58/2 4/56/2
f 12/1/1 14/2/1 13/59/1
f 16/4/2 10/5/2 11/60/2
f 14/7/3 10/8/3 15/61/3
f 28/10/4 16/11/4 11/62/4
f 1/13/5 9/14/5 3/20/5
f 2/16/5 10/15/5 1/13/5
f 4/19/5 9/14/5 12/39/5
f 8/21/6 14/22/6 7/24/6
f 7/24/6 15/25/6 5/28/6
f 6/27/6 15/25/6 16/42/6
f 6/29/7 22/30/7 21/43/7
f 4/32/8 23/33/8 24/44/8
f 12/35/4 26/36/4 25/41/4
f 8/21/6 27/38/6 26/26/6
f 25/41/4 27/12/4 28/10/4
f 2/16/5 25/40/5 28/18/5
f 21/43/3 24/44/3 23/33/3
f 26/47/1 22/45/1 8/63/1
f 22/45/1 4/46/1 24/64/1
f 4/46/1 26/47/1 25/65/1
f 2/48/2 27/49/2 6/66/2
f 20/67/1 17/51/1 19/68/1
f 17/51/1 23/52/1 18/69/1
f 21/53/1 17/51/1 20/67/1
f 3/54/4 19/55/4 17/70/4
f 7/57/2 4/56/2 8/54/2
l 1 17
l 2 18
l 5 19
l 6 20
g Cube.ME.COLLIDER_Mesh
v -0.515941 -3.226738 -4.906731
v -0.515941 2.340278 -4.906731
v -0.515941 -3.226738 -5.966251
v -0.515941 2.340278 -5.966251
v 0.543580 -3.226738 -4.906731
v 0.543580 2.340278 -4.906731
v 0.543580 -3.226738 -5.966251
v 0.543580 2.340278 -5.966251
vn -1.0000 -0.0000 -0.0000
vn -0.0000 -0.0000 -1.0000
vn 1.0000 -0.0000 -0.0000
vn -0.0000 -0.0000 1.0000
vn -0.0000 -1.0000 -0.0000
vn -0.0000 1.0000 -0.0000
vt 0.625000 0.000000
vt 0.375000 0.250000
vt 0.375000 0.000000
vt 0.625000 0.250000
vt 0.375000 0.500000
vt 0.625000 0.500000
vt 0.375000 0.750000
vt 0.625000 0.750000
vt 0.375000 1.000000
vt 0.125000 0.750000
vt 0.125000 0.500000
vt 0.875000 0.500000
vt 0.625000 1.000000
vt 0.875000 0.750000
s 0
f 30/71/9 31/72/9 29/73/9
f 32/74/10 35/75/10 31/72/10
f 36/76/11 33/77/11 35/75/11
f 34/78/12 29/79/12 33/77/12
f 35/75/13 29/80/13 31/81/13
f 32/82/14 34/78/14 36/76/14
f 30/71/9 32/74/9 31/72/9
f 32/74/10 36/76/10 35/75/10
f 36/76/11 34/78/11 33/77/11
f 34/78/12 30/83/12 29/79/12
f 35/75/13 33/77/13 29/80/13
f 32/82/14 30/84/14 34/78/14
g Cube.ME.COLLIDER2_Mesh
v -0.515941 -3.226738 6.141603
v -0.515941 2.340278 6.141603
v -0.515941 -3.226738 5.082082
v -0.515941 2.340278 5.082082
v 0.543580 -3.226738 6.141603
v 0.543580 2.340278 6.141603
v 0.543580 -3.226738 5.082082
v 0.543580 2.340278 5.082082
vn -1.0000 -0.0000 -0.0000
vn -0.0000 -0.0000 -1.0000
vn 1.0000 -0.0000 -0.0000
vn -0.0000 -0.0000 1.0000
vn -0.0000 -1.0000 -0.0000
vn -0.0000 1.0000 -0.0000
vt 0.625000 0.000000
vt 0.375000 0.250000
vt 0.375000 0.000000
vt 0.625000 0.250000
vt 0.375000 0.500000
vt 0.625000 0.500000
vt 0.375000 0.750000
vt 0.625000 0.750000
vt 0.375000 1.000000
vt 0.125000 0.750000
vt 0.125000 0.500000
vt 0.875000 0.500000
vt 0.625000 1.000000
vt 0.875000 0.750000
s 0
f 38/85/15 39/86/15 37/87/15
f 40/88/16 43/89/16 39/86/16
f 44/90/17 41/91/17 43/89/17
f 42/92/18 37/93/18 41/91/18
f 43/89/19 37/94/19 39/95/19
f 40/96/20 42/92/20 44/90/20
f 38/85/15 40/88/15 39/86/15
f 40/88/16 44/90/16 43/89/16
f 44/90/17 42/92/17 41/91/17
f 42/92/18 38/97/18 37/93/18
f 43/89/19 41/91/19 37/94/19
f 40/96/20 38/98/20 42/92/20
